<?xml version="1.0" standalone="no"?>
<!DOCTYPE svg PUBLIC "-//W3C//DTD SVG 20010904//EN"
 "http://www.w3.org/TR/2001/REC-SVG-20010904/DTD/svg10.dtd">
<svg version="1.0" xmlns="http://www.w3.org/2000/svg"
 width="259.000000pt" height="194.000000pt" viewBox="0 0 259.000000 194.000000"
 preserveAspectRatio="xMidYMid meet">
<metadata>
Created by potrace 1.10, written by Peter Selinger 2001-2011
</metadata>
<g transform="translate(0.000000,194.000000) scale(0.100000,-0.100000)"
fill="#000000" stroke="none">
<path d="M61 1381 l-24 -7 26 -17 c25 -16 26 -16 30 6 4 19 4 20 6 2 1 -21 7
-23 401 -125 204 -53 211 -57 249 -126 23 -42 30 -66 26 -86 -6 -24 -9 -26
-25 -16 -10 7 -17 15 -15 18 2 4 -14 7 -37 8 -22 1 -47 7 -55 14 -11 8 -17 8
-26 -1 -9 -10 -8 -11 8 -5 16 5 18 4 8 -6 -6 -7 -23 -12 -37 -12 -36 0 -52
-22 -28 -40 19 -14 46 -108 31 -108 -5 0 -10 5 -10 10 -3 19 -4 25 -10 35 -4
6 -5 18 -4 27 2 9 -3 19 -11 22 -11 4 -12 1 -6 -12 5 -9 9 -29 8 -44 -1 -14 3
-24 8 -21 5 3 7 -6 4 -20 -3 -15 -1 -24 3 -21 5 3 9 -4 9 -14 0 -11 7 -22 15
-26 8 -3 15 -1 15 3 0 5 -6 12 -12 14 -8 3 -6 6 5 6 9 1 17 -3 17 -9 0 -5 13
-16 29 -24 24 -13 31 -13 47 -1 18 13 17 14 -11 12 -27 -2 -33 3 -52 45 -13
25 -26 71 -29 101 l-6 54 34 7 c20 4 52 1 74 -6 l39 -13 6 -65 c3 -36 2 -69
-3 -75 -5 -5 -8 -2 -8 7 0 12 -7 16 -22 12 -13 -2 -35 -5 -50 -6 -15 -1 -24
-6 -21 -11 3 -4 11 -6 19 -3 7 3 16 1 19 -4 3 -4 -1 -11 -7 -13 -7 -3 -3 -6 9
-6 12 -1 26 6 31 15 7 12 11 13 16 5 4 -7 2 -20 -6 -29 -11 -15 -11 -15 3 -5
9 7 19 9 23 5 4 -4 7 -2 6 3 -7 34 3 35 33 2 21 -23 50 -41 85 -52 47 -15 51
-19 40 -33 -12 -15 -11 -15 4 -4 14 11 18 10 28 -8 12 -22 13 -22 -50 -38 -20
-5 -45 -5 -58 -1 -33 13 -53 1 -48 -28 4 -20 2 -23 -12 -18 -9 3 -13 3 -9 -2
5 -4 23 -8 41 -9 29 -1 32 2 28 23 -2 13 0 23 6 23 5 0 12 -13 14 -29 4 -27 1
-29 -45 -40 -38 -9 -53 -8 -64 1 -12 10 -18 9 -28 -5 -6 -9 -15 -14 -18 -10
-4 3 -7 1 -7 -4 0 -6 6 -14 13 -16 6 -3 -3 -3 -20 0 -21 3 -33 1 -33 -6 0 -6
12 -11 26 -11 27 0 54 -20 54 -42 0 -7 9 1 20 18 l20 31 208 7 c114 4 223 11
243 17 36 9 83 42 74 51 -3 3 1 11 10 18 16 13 19 6 16 -32 -1 -9 2 -18 6 -21
4 -3 8 12 8 33 0 21 -3 36 -7 33 -5 -2 -8 0 -8 6 0 5 4 12 8 15 5 3 143 6 308
7 264 1 305 3 354 20 30 11 63 19 73 19 11 0 15 4 11 11 -4 7 -1 10 7 7 8 -3
13 -11 11 -17 -1 -7 2 -10 8 -6 8 5 7 11 -1 21 -7 8 -7 14 -1 14 14 0 33 -25
25 -33 -3 -4 -1 -7 5 -7 16 0 15 10 -2 29 -12 14 -7 21 36 54 35 27 48 33 46
21 -2 -9 4 -19 12 -21 13 -4 13 -3 0 6 -12 8 -12 11 -1 11 11 0 11 3 1 15 -10
13 -9 15 8 15 12 0 24 5 28 11 3 6 15 9 25 6 11 -3 19 -2 19 3 0 10 55 20 133
25 33 2 70 6 84 10 21 5 23 8 12 21 -6 8 -9 18 -5 21 4 4 11 1 16 -7 8 -13 11
-13 22 -1 8 9 9 11 1 7 -6 -3 -15 -1 -18 5 -4 5 -14 8 -23 4 -9 -3 -25 4 -39
17 -14 13 -28 22 -31 20 -4 -2 -8 2 -11 9 -2 6 1 9 7 5 6 -3 9 1 8 11 -2 9 -9
19 -17 21 -11 3 -11 2 -1 -6 10 -7 10 -11 -3 -22 -14 -11 -19 -7 -16 12 0 4
-5 5 -13 2 -8 -3 -35 8 -61 24 -27 17 -59 29 -71 27 -13 -1 -21 2 -18 6 3 5
-2 12 -10 15 -9 3 -14 10 -11 14 6 9 -42 6 -52 -3 -3 -4 -15 -1 -27 5 -11 7
-32 13 -46 15 -14 1 -34 4 -45 7 -11 2 -36 5 -55 5 -26 1 -31 4 -20 11 11 7
11 10 2 10 -7 0 -10 5 -6 12 4 7 3 8 -4 4 -7 -4 -12 -2 -12 4 0 6 -5 8 -11 4
-8 -4 -7 -9 2 -15 22 -13 7 -16 -51 -9 -48 6 -47 9 6 14 19 2 44 28 43 45 -1
13 -2 12 -6 -2 -4 -16 -9 -13 -30 15 -19 25 -23 28 -18 11 7 -24 -4 -31 -66
-46 -23 -6 -26 -4 -26 23 0 17 5 27 10 23 6 -3 7 -1 3 6 -12 19 -27 1 -20 -22
6 -19 5 -20 -9 -8 -9 7 -15 17 -12 20 2 4 -1 8 -8 8 -7 0 -20 4 -29 8 -12 5
-26 -3 -47 -26 -17 -18 -28 -36 -25 -41 3 -4 36 -8 75 -8 45 0 69 -4 69 -11 0
-8 -21 -10 -72 -5 -40 4 -86 6 -102 6 -15 0 -34 4 -40 9 -13 11 -59 3 -51 -9
6 -10 -173 -22 -204 -13 -16 4 -22 3 -17 -5 6 -10 -2 -10 -79 2 -11 2 -41 14
-67 27 -34 16 -44 26 -35 32 8 6 7 7 -5 3 -10 -3 -69 20 -139 53 -104 51 -117
60 -97 67 13 4 27 7 31 6 5 -1 6 2 2 8 -4 6 -15 5 -33 -4 -22 -11 -68 -12
-242 -5 -118 4 -296 10 -395 12 -99 3 -187 7 -195 10 -8 3 -26 2 -39 -2z m434
-26 c182 -4 351 -11 377 -16 25 -4 121 -45 212 -91 161 -80 204 -108 111 -72
-44 16 -47 16 -63 0 -16 -16 -16 -17 2 -10 14 5 17 4 11 -5 -6 -10 -3 -11 14
-2 12 7 28 8 36 3 19 -10 -163 -45 -191 -36 -15 5 -16 4 -4 -5 12 -9 10 -11
-10 -11 -19 0 -26 5 -26 20 0 12 5 19 13 16 7 -3 15 -1 18 3 2 5 -4 11 -15 14
-11 3 -20 0 -20 -6 0 -7 -6 -5 -15 3 -10 11 -12 24 -7 44 10 37 32 46 32 14 0
-18 2 -20 10 -8 8 13 10 12 10 -2 0 -10 -4 -18 -10 -18 -5 0 -10 -4 -10 -10 0
-24 28 -7 32 20 3 22 0 31 -14 36 -10 3 -18 10 -18 16 0 7 5 6 15 -2 8 -7 23
-9 36 -5 21 7 21 6 5 -16 -19 -27 -20 -39 -5 -39 5 0 7 5 4 10 -3 6 -1 10 5
10 6 0 8 5 5 10 -6 9 8 14 28 11 4 0 7 1 7 4 0 8 -80 46 -80 38 0 -5 -4 -3 -8
2 -11 16 -70 46 -84 44 -7 -1 -21 1 -31 6 -9 4 -29 4 -43 1 -21 -6 -24 -9 -13
-22 10 -12 9 -13 -6 -7 -15 5 -17 3 -12 -11 5 -13 3 -17 -7 -13 -8 3 -16 -2
-19 -14 -3 -10 -10 -19 -16 -19 -17 0 -13 31 7 47 15 12 14 12 -8 3 -30 -13
-34 -47 -7 -56 12 -4 16 -12 12 -25 -4 -11 -2 -19 4 -19 11 0 14 11 12 40 0 8
4 5 11 -7 6 -13 15 -23 21 -23 5 0 4 7 -3 15 -10 12 -10 21 -2 40 12 27 57 53
69 41 11 -10 -12 -41 -30 -40 -9 1 -13 -4 -10 -12 3 -9 0 -13 -8 -11 -8 2 -11
2 -6 0 10 -7 9 -37 -3 -49 -8 -8 -6 -15 5 -24 21 -17 19 -36 -2 -19 -15 11
-16 11 -5 -1 19 -22 14 -35 -7 -14 -10 10 -14 22 -9 25 10 7 0 39 -13 39 -4 0
-6 -7 -3 -15 10 -24 -21 -18 -79 15 -29 16 -49 30 -45 30 13 0 63 -24 70 -35
4 -5 10 -6 14 -2 4 3 2 13 -4 20 -7 8 -8 18 -4 22 4 5 2 5 -5 1 -7 -4 -71 7
-142 24 -71 16 -136 27 -145 24 -9 -4 -16 -1 -16 6 0 8 -9 10 -26 6 -17 -5
-23 -3 -19 4 3 5 3 10 -1 10 -25 0 -251 54 -259 62 -7 7 0 8 20 5 17 -3 179
-9 360 -12z m444 -66 c37 -13 38 -19 7 -48 -26 -25 -30 -76 -6 -91 18 -11 21
-50 4 -50 -7 0 -16 5 -19 10 -10 17 -25 11 -19 -7 5 -14 4 -15 -4 -4 -6 8 -19
12 -31 8 -12 -3 -21 -1 -21 5 0 5 -5 6 -11 2 -17 -10 12 -25 36 -18 11 4 17 3
13 -1 -13 -14 -56 -13 -62 1 -3 7 2 20 10 29 14 14 13 17 -8 35 -14 13 -17 18
-6 14 10 -3 20 2 28 15 9 17 8 21 -5 21 -22 0 -19 16 7 34 25 18 38 20 38 8 0
-5 -12 -13 -27 -19 l-28 -12 29 6 c23 5 27 3 22 -8 -4 -8 4 -2 17 13 14 15 28
24 33 20 4 -4 4 -2 1 5 -4 6 -1 14 5 16 9 4 10 6 1 6 -6 1 -15 -3 -18 -9 -3
-5 -11 -10 -17 -10 -7 0 -6 6 2 15 8 9 8 15 2 15 -6 0 -12 -6 -15 -12 -2 -7
-8 -10 -12 -6 -8 8 2 28 14 28 4 0 22 -5 40 -11z m81 -35 c0 -2 -7 -4 -15 -4
-8 0 -15 4 -15 10 0 5 7 7 15 4 8 -4 15 -8 15 -10z m768 -11 c2 -8 -5 -13 -17
-13 -11 0 -23 -4 -26 -10 -3 -5 -14 -10 -23 -9 -11 0 -12 3 -4 6 6 2 12 11 12
18 0 25 50 31 58 8z m-1218 -3 c8 -5 11 -10 5 -10 -5 0 -17 5 -25 10 -8 5 -10
10 -5 10 6 0 17 -5 25 -10z m1380 -19 c0 -5 -16 -12 -36 -15 -19 -4 -42 -10
-50 -13 -8 -3 -14 -1 -14 5 0 6 18 13 40 17 22 4 40 11 40 16 0 6 5 7 10 4 6
-3 10 -10 10 -14z m-135 -1 c4 -6 -9 -10 -32 -9 -38 1 -38 1 -8 9 17 4 31 8
32 9 1 0 5 -3 8 -9z m205 -71 c83 -13 162 -33 275 -71 97 -32 136 -55 75 -44
-19 3 -52 9 -73 12 -26 5 -36 11 -33 20 3 8 -1 14 -10 14 -9 0 -14 -7 -12 -17
3 -19 42 -30 127 -38 35 -3 67 -13 92 -30 21 -14 43 -25 49 -25 6 0 9 -3 7 -7
-3 -5 -99 -5 -214 -1 -207 6 -1046 2 -1364 -7 l-166 -5 8 51 c5 28 10 53 11
54 5 4 233 53 372 80 71 14 143 23 160 20 17 -3 60 -1 96 4 80 11 510 4 600
-10z m-1250 -19 c6 -11 17 -20 24 -20 19 0 28 -27 11 -34 -8 -3 -24 11 -39 35
-15 21 -22 39 -16 39 5 0 14 -9 20 -20z m1497 -26 c-6 -6 -47 9 -47 17 0 5 11
3 25 -3 14 -6 24 -13 22 -14z m-1680 -110 c-9 -9 -28 6 -21 18 4 6 10 6 17 -1
6 -6 8 -13 4 -17z m1953 -54 c0 -5 -325 -9 -790 -9 -470 0 -790 4 -790 10 0 5
319 9 790 9 465 -1 790 -5 790 -10z m-1668 -10 c-45 -4 -84 -9 -86 -11 -3 -2
356 -3 797 -2 502 0 782 -2 749 -8 -29 -5 -66 -16 -83 -24 -16 -9 -35 -12 -42
-8 -7 4 -18 8 -25 9 -10 2 -10 -1 -1 -12 6 -7 15 -11 20 -8 5 3 9 3 9 0 0 -17
-129 -97 -185 -116 -58 -19 -91 -22 -359 -26 -164 -2 -297 0 -300 5 -3 5 12
26 34 47 22 22 40 45 40 53 0 8 7 11 20 8 11 -3 20 -1 20 4 0 5 10 9 23 8 21
0 21 -1 2 -10 -17 -8 -17 -9 5 -4 14 3 79 8 145 11 152 7 290 27 335 48 l35
16 -35 -6 c-19 -3 -53 -10 -75 -15 -35 -7 -304 -25 -455 -31 -30 -1 -75 5
-100 12 -65 19 -238 15 -332 -8 l-76 -19 -58 28 c-51 23 -84 28 -84 12 0 -3 7
-3 15 1 8 3 15 1 15 -4 0 -4 14 -12 31 -15 23 -5 28 -9 18 -16 -10 -6 -8 -9
10 -9 l23 0 -23 -19 c-12 -10 -31 -16 -41 -13 -22 6 -68 58 -68 78 0 9 -4 12
-10 9 -11 -7 -13 6 -4 28 4 11 26 14 92 15 l87 0 -83 -8z m-149 -65 c-3 -9 -8
-14 -10 -11 -3 3 -2 9 2 15 9 16 15 13 8 -4z m655 -11 c49 -14 67 -34 42 -49
-5 -3 -10 1 -10 9 0 28 -43 40 -160 44 -101 3 -128 0 -215 -23 -141 -38 -149
-39 -142 -28 10 15 160 54 242 63 85 9 172 3 243 -16z m-763 6 c3 -5 2 -10 -4
-10 -5 0 -13 5 -16 10 -3 6 -2 10 4 10 5 0 13 -4 16 -10z m768 -25 c24 -10 22
-19 -19 -85 -26 -42 -41 -57 -52 -53 -14 4 -14 3 -3 -5 13 -9 13 -13 1 -27
-26 -31 -62 -36 -318 -49 -12 0 -26 -7 -31 -14 -5 -9 -32 -12 -97 -10 -86 3
-88 3 -49 15 22 6 76 19 120 30 86 20 104 38 68 72 -10 10 -30 32 -45 49 l-28
31 23 12 c12 7 23 11 25 10 1 -1 19 3 40 9 20 5 40 10 45 10 11 0 9 -108 -3
-115 -5 -3 -15 -15 -21 -26 -10 -20 -9 -20 19 -5 29 15 29 17 28 85 l-1 70 30
5 c45 6 247 0 268 -9z m-383 -140 c7 -8 11 -15 9 -16 -115 -15 -161 -4 -79 19
49 14 56 14 70 -3z m-164 -10 c-1 -8 -6 -18 -11 -22 -4 -4 -5 -2 -1 5 4 6 2
12 -4 12 -6 0 -8 5 -5 10 9 15 24 12 21 -5z m158 -25 c-38 -15 -114 -23 -114
-12 0 6 24 13 53 15 28 2 59 4 67 5 8 0 5 -3 -6 -8z m-231 -67 c3 -16 3 -30 1
-33 -7 -7 -24 23 -24 43 0 27 17 20 23 -10z m462 17 c-16 -4 -73 -7 -125 -7
l-95 1 100 6 c149 9 156 9 120 0z m-228 -16 c-3 -3 -12 -4 -19 -1 -8 3 -5 6 6
6 11 1 17 -2 13 -5z"/>
<path d="M318 1333 c6 -2 18 -2 25 0 6 3 1 5 -13 5 -14 0 -19 -2 -12 -5z"/>
<path d="M488 1333 c6 -2 18 -2 25 0 6 3 1 5 -13 5 -14 0 -19 -2 -12 -5z"/>
<path d="M748 1333 c12 -2 30 -2 40 0 9 3 -1 5 -23 4 -22 0 -30 -2 -17 -4z"/>
<path d="M563 1323 c9 -2 23 -2 30 0 6 3 -1 5 -18 5 -16 0 -22 -2 -12 -5z"/>
<path d="M705 1320 c11 -5 27 -9 35 -9 9 0 8 4 -5 9 -11 5 -27 9 -35 9 -9 0
-8 -4 5 -9z"/>
<path d="M495 1290 c27 -12 43 -12 25 0 -8 5 -22 9 -30 9 -10 0 -8 -3 5 -9z"/>
<path d="M845 1280 c-3 -5 -1 -10 4 -10 6 0 11 5 11 10 0 6 -2 10 -4 10 -3 0
-8 -4 -11 -10z"/>
<path d="M1085 1220 c3 -5 14 -10 23 -10 15 0 15 2 2 10 -20 13 -33 13 -25 0z"/>
<path d="M945 1180 c3 -5 8 -10 11 -10 2 0 4 5 4 10 0 6 -5 10 -11 10 -5 0 -7
-4 -4 -10z"/>
<path d="M748 1173 c7 -3 16 -2 19 1 4 3 -2 6 -13 5 -11 0 -14 -3 -6 -6z"/>
<path d="M896 1194 c-10 -25 1 -29 14 -5 6 12 7 21 1 21 -5 0 -12 -7 -15 -16z"/>
<path d="M852 1177 c-15 -18 -5 -27 29 -27 15 0 29 -5 31 -12 3 -9 6 -9 12 0
4 7 2 12 -4 12 -6 0 -8 5 -4 11 4 7 1 10 -7 7 -8 -3 -21 1 -30 9 -14 11 -18
11 -27 0z m25 -13 c-3 -3 -12 -4 -19 -1 -8 3 -5 6 6 6 11 1 17 -2 13 -5z"/>
<path d="M860 1132 c0 -4 9 -8 20 -8 11 0 20 4 20 8 0 4 -9 8 -20 8 -11 0 -20
-4 -20 -8z"/>
<path d="M1060 1100 c-129 -27 -241 -49 -249 -50 -8 0 -12 -3 -8 -6 3 -3 39 1
80 10 44 9 96 13 128 9 53 -5 55 -6 51 -33 -2 -15 1 -30 6 -34 6 -3 9 7 8 25
0 18 4 34 10 36 7 2 10 -5 7 -20 -3 -14 0 -27 5 -31 6 -4 8 2 5 14 -9 36 14
50 83 50 l64 0 0 -39 0 -39 -102 -6 c-57 -4 -125 -6 -151 -5 -47 2 -48 2 -45
32 2 17 9 33 17 35 10 3 11 0 5 -9 -12 -20 -14 -38 -3 -45 5 -3 10 7 10 23 1
21 3 23 6 8 8 -33 18 -36 18 -5 0 15 -2 26 -4 24 -2 -2 -10 1 -16 6 -24 20
-45 0 -45 -41 l0 -39 103 1 c56 1 127 4 157 7 l55 7 5 45 5 45 52 0 c28 0 49
3 46 8 -2 4 -28 7 -56 7 -39 0 -48 3 -37 11 13 9 13 10 0 6 -8 -2 -14 -10 -13
-18 2 -11 -24 -14 -135 -16 -75 -1 -132 0 -127 2 6 2 80 18 164 35 85 17 157
33 160 35 9 9 -26 3 -259 -45z"/>
<path d="M1500 1130 c-9 -6 -10 -10 -3 -10 6 0 15 5 18 10 8 12 4 12 -15 0z"/>
<path d="M1843 1125 c0 -8 4 -12 9 -9 5 3 6 10 3 15 -9 13 -12 11 -12 -6z"/>
<path d="M1887 1129 c7 -7 15 -10 18 -7 3 3 -2 9 -12 12 -14 6 -15 5 -6 -5z"/>
<path d="M1626 1104 c-9 -8 -16 -19 -16 -23 0 -16 29 -32 52 -29 29 4 36 37
12 55 -23 17 -29 16 -48 -3z m42 -22 c2 -7 -3 -12 -12 -12 -9 0 -16 7 -16 16
0 17 22 14 28 -4z"/>
<path d="M2005 1110 c-3 -6 1 -7 9 -4 18 7 21 14 7 14 -6 0 -13 -4 -16 -10z"/>
<path d="M1380 1071 c0 -23 5 -41 10 -41 7 0 7 -6 0 -20 -9 -16 -8 -20 5 -20
8 0 14 5 13 12 -2 6 8 14 22 18 21 5 25 12 25 45 0 39 -1 40 -37 43 l-38 3 0
-40z m60 1 c0 -35 -6 -41 -31 -35 -13 4 -19 14 -19 34 0 24 4 29 25 29 21 0
25 -5 25 -28z"/>
<path d="M1850 1095 c-11 -13 -11 -18 2 -31 20 -20 50 -7 46 20 -4 26 -30 32
-48 11z m35 -15 c-3 -5 -10 -10 -16 -10 -5 0 -9 5 -9 10 0 6 7 10 16 10 8 0
12 -4 9 -10z"/>
<path d="M1494 1089 c-5 -8 97 0 106 8 2 2 -19 3 -48 2 -29 -2 -55 -6 -58 -10z"/>
<path d="M2021 1087 c-9 -11 -8 -17 4 -27 19 -16 47 -5 43 17 -4 23 -31 28
-47 10z m29 -17 c0 -5 -2 -10 -4 -10 -3 0 -8 5 -11 10 -3 6 -1 10 4 10 6 0 11
-4 11 -10z"/>
<path d="M1710 1079 c0 -5 4 -8 9 -5 5 4 12 0 14 -6 3 -8 6 -6 6 5 1 9 -6 17
-14 17 -8 0 -15 -5 -15 -11z"/>
<path d="M1750 1079 c0 -5 17 -9 37 -9 43 0 41 6 -4 13 -18 3 -33 1 -33 -4z"/>
<path d="M2150 1076 c0 -20 25 -37 44 -30 19 7 20 16 4 32 -16 16 -48 15 -48
-2z m35 -6 c3 -5 1 -10 -4 -10 -6 0 -11 5 -11 10 0 6 2 10 4 10 3 0 8 -4 11
-10z"/>
<path d="M1917 1070 c13 -11 93 -29 93 -20 0 4 -23 12 -51 17 -28 6 -47 7 -42
3z"/>
<path d="M1124 1045 c-7 -17 1 -45 13 -45 4 0 8 14 8 30 0 32 -12 40 -21 15z"/>
<path d="M1160 1030 c0 -16 3 -30 8 -30 4 0 7 14 7 30 0 17 -3 30 -7 30 -5 0
-8 -13 -8 -30z"/>
<path d="M1190 1036 c0 -14 3 -27 8 -29 4 -3 7 8 7 24 0 16 -3 29 -7 29 -5 0
-8 -11 -8 -24z"/>
<path d="M1220 1036 c0 -14 3 -27 8 -29 4 -3 7 8 7 24 0 16 -3 29 -7 29 -5 0
-8 -11 -8 -24z"/>
<path d="M1027 1043 c-9 -9 -9 -41 1 -46 4 -3 7 8 7 24 0 16 0 29 -1 29 0 0
-4 -3 -7 -7z"/>
<path d="M2084 1034 c11 -8 35 -14 54 -14 23 0 31 -4 26 -12 -5 -8 -2 -9 9 -5
9 3 35 0 57 -8 22 -8 40 -11 40 -7 0 8 -48 23 -150 47 -48 12 -52 12 -36 -1z"/>
<path d="M1607 1029 c7 -7 15 -10 18 -7 3 3 -2 9 -12 12 -14 6 -15 5 -6 -5z"/>
<path d="M878 1007 c-3 -19 -2 -25 4 -19 6 6 8 18 6 28 -3 14 -5 12 -10 -9z"/>
<path d="M1471 1014 c0 -11 3 -14 6 -6 3 7 2 16 -1 19 -3 4 -6 -2 -5 -13z"/>
<path d="M1655 1020 c-3 -6 1 -7 9 -4 18 7 21 14 7 14 -6 0 -13 -4 -16 -10z"/>
<path d="M2050 1026 c0 -2 7 -7 16 -10 8 -3 12 -2 9 4 -6 10 -25 14 -25 6z"/>
<path d="M830 1009 c12 -9 10 -10 -9 -5 -17 3 -21 2 -13 -6 5 -5 20 -7 32 -3
18 6 20 9 9 16 -20 13 -37 11 -19 -2z"/>
<path d="M900 896 c0 -3 9 -10 20 -16 11 -6 20 -8 20 -6 0 3 -9 10 -20 16 -11
6 -20 8 -20 6z"/>
<path d="M956 892 c-3 -5 1 -9 9 -9 8 0 12 4 9 9 -3 4 -7 8 -9 8 -2 0 -6 -4
-9 -8z"/>
<path d="M990 896 c0 -2 7 -7 16 -10 8 -3 12 -2 9 4 -6 10 -25 14 -25 6z"/>
<path d="M1037 889 c7 -7 15 -10 18 -7 3 3 -2 9 -12 12 -14 6 -15 5 -6 -5z"/>
<path d="M1403 893 c9 -2 25 -2 35 0 9 3 1 5 -18 5 -19 0 -27 -2 -17 -5z"/>
<path d="M1403 873 c9 -2 25 -2 35 0 9 3 1 5 -18 5 -19 0 -27 -2 -17 -5z"/>
<path d="M847 846 c-4 -10 -1 -13 9 -9 7 3 14 9 14 14 0 14 -17 10 -23 -5z"/>
<path d="M1928 833 c7 -3 16 -2 19 1 4 3 -2 6 -13 5 -11 0 -14 -3 -6 -6z"/>
<path d="M2015 810 c3 -5 8 -10 11 -10 2 0 4 5 4 10 0 6 -5 10 -11 10 -5 0 -7
-4 -4 -10z"/>
<path d="M1410 761 c0 -6 4 -13 10 -16 6 -3 7 1 4 9 -7 18 -14 21 -14 7z"/>
<path d="M1010 726 c0 -2 7 -7 16 -10 8 -3 12 -2 9 4 -6 10 -25 14 -25 6z"/>
<path d="M848 603 c7 -3 16 -2 19 1 4 3 -2 6 -13 5 -11 0 -14 -3 -6 -6z"/>
<path d="M893 603 c9 -2 23 -2 30 0 6 3 -1 5 -18 5 -16 0 -22 -2 -12 -5z"/>
<path d="M990 1373 c5 -2 8 -9 4 -14 -3 -5 0 -9 6 -9 15 0 7 23 -8 26 -7 1 -8
0 -2 -3z"/>
<path d="M1078 1293 c7 -3 16 -2 19 1 4 3 -2 6 -13 5 -11 0 -14 -3 -6 -6z"/>
<path d="M1716 1283 c-6 -14 -5 -15 5 -6 7 7 10 15 7 18 -3 3 -9 -2 -12 -12z"/>
<path d="M1750 1296 c0 -2 7 -7 16 -10 8 -3 12 -2 9 4 -6 10 -25 14 -25 6z"/>
<path d="M1115 1281 c-6 -11 13 -26 22 -17 4 3 1 6 -6 6 -7 0 -9 5 -6 10 3 6
4 10 1 10 -3 0 -7 -4 -11 -9z"/>
<path d="M1946 1277 c3 -10 9 -15 12 -12 3 3 0 11 -7 18 -10 9 -11 8 -5 -6z"/>
<path d="M1980 1269 c7 -11 14 -19 16 -16 7 7 -7 37 -17 37 -6 0 -5 -9 1 -21z"/>
<path d="M1685 1249 c-4 -6 -5 -12 -2 -15 2 -3 7 2 10 11 7 17 1 20 -8 4z"/>
<path d="M354 1235 c38 -15 73 -7 45 10 -8 6 -10 4 -4 -5 6 -10 4 -12 -9 -7
-10 4 -30 9 -44 12 -16 3 -11 -1 12 -10z"/>
<path d="M1998 1218 c5 -5 16 -8 23 -6 8 3 3 7 -10 11 -17 4 -21 3 -13 -5z"/>
<path d="M1440 1210 c0 -13 33 -21 42 -12 6 6 -1 11 -16 14 -14 3 -26 2 -26
-2z"/>
<path d="M1350 1198 c0 -5 -10 -7 -22 -3 -18 5 -20 4 -7 -4 9 -6 28 -7 45 -2
27 7 28 8 6 13 -12 3 -22 2 -22 -4z"/>
<path d="M2038 1183 c6 -2 18 -2 25 0 6 3 1 5 -13 5 -14 0 -19 -2 -12 -5z"/>
<path d="M654 1166 c24 -19 32 -20 42 -4 4 7 3 8 -4 4 -6 -4 -22 -2 -34 4 -22
11 -22 10 -4 -4z"/>
<path d="M2076 1171 c-4 -5 3 -7 14 -4 23 6 26 13 6 13 -8 0 -17 -4 -20 -9z"/>
<path d="M620 1150 c-13 -8 -12 -10 3 -10 9 0 17 5 17 10 0 12 -1 12 -20 0z"/>
<path d="M2280 1128 c6 -7 28 -13 50 -13 45 -1 46 2 1 15 -19 5 -29 5 -26 -1
8 -12 -8 -12 -23 1 -9 7 -9 7 -2 -2z"/>
<path d="M2385 1100 c-3 -5 -1 -10 4 -10 6 0 11 5 11 10 0 6 -2 10 -4 10 -3 0
-8 -4 -11 -10z"/>
<path d="M745 1061 c-3 -5 -2 -12 3 -15 5 -3 9 1 9 9 0 17 -3 19 -12 6z"/>
<path d="M640 962 c0 -4 10 -9 23 -10 12 -1 31 -3 42 -5 11 -1 23 -6 27 -12 5
-6 8 -3 8 6 0 11 -12 18 -37 23 -50 8 -63 8 -63 -2z"/>
<path d="M698 913 c7 -3 16 -2 19 1 4 3 -2 6 -13 5 -11 0 -14 -3 -6 -6z"/>
<path d="M2290 866 c0 -2 7 -7 16 -10 8 -3 12 -2 9 4 -6 10 -25 14 -25 6z"/>
<path d="M2272 842 c-8 -6 -2 -9 18 -9 20 0 26 3 18 9 -7 4 -15 8 -18 8 -3 0
-11 -4 -18 -8z"/>
<path d="M668 773 c6 -2 18 -2 25 0 6 3 1 5 -13 5 -14 0 -19 -2 -12 -5z"/>
<path d="M895 760 c6 -10 4 -12 -11 -6 -15 6 -17 5 -6 -5 9 -9 15 -10 23 -2 8
8 7 13 -2 18 -8 6 -10 4 -4 -5z"/>
<path d="M800 746 c0 -2 8 -10 18 -17 15 -13 16 -12 3 4 -13 16 -21 21 -21 13z"/>
<path d="M855 720 c-3 -6 1 -7 9 -4 18 7 21 14 7 14 -6 0 -13 -4 -16 -10z"/>
<path d="M1388 693 c7 -3 16 -2 19 1 4 3 -2 6 -13 5 -11 0 -14 -3 -6 -6z"/>
<path d="M1858 693 c12 -2 32 -2 45 0 12 2 2 4 -23 4 -25 0 -35 -2 -22 -4z"/>
<path d="M1930 670 c8 -5 20 -10 25 -10 6 0 3 5 -5 10 -8 5 -19 10 -25 10 -5
0 -3 -5 5 -10z"/>
<path d="M1438 663 c12 -2 30 -2 40 0 9 3 -1 5 -23 4 -22 0 -30 -2 -17 -4z"/>
<path d="M740 653 c8 -3 24 -13 35 -22 20 -16 20 -16 1 7 -11 12 -26 22 -35
21 -14 0 -14 -1 -1 -6z"/>
<path d="M650 630 c-13 -8 -12 -10 3 -10 9 0 17 5 17 10 0 12 -1 12 -20 0z"/>
<path d="M1330 602 c0 -12 19 -26 26 -19 2 2 -2 10 -11 17 -9 8 -15 8 -15 2z"/>
</g>
</svg>
